<svg width="40" height="40" viewBox="0 0 40 40" fill="none" xmlns="http://www.w3.org/2000/svg">
<path d="M0 20C0 8.95431 8.95431 0 20 0C31.0457 0 40 8.95431 40 20C40 31.0457 31.0457 40 20 40C8.95431 40 0 31.0457 0 20Z" fill="#E8E8E8"/>
<g clip-path="url(#clip0_1029_3036)">
<path d="M14.5 18H12.5V25H14.5V18ZM20.5 18H18.5V25H20.5V18ZM29 27H10V29H29V27ZM26.5 18H24.5V25H26.5V18ZM19.5 11.26L24.71 14H14.29L19.5 11.26ZM19.5 9L10 14V16H29V14L19.5 9Z" fill="#373737"/>
</g>
<defs>
<clipPath id="clip0_1029_3036">
<rect width="24" height="24" fill="white" transform="translate(8 8)"/>
</clipPath>
</defs>
</svg>
