<svg width="40" height="40" viewBox="0 0 40 40" fill="none" xmlns="http://www.w3.org/2000/svg">
<path d="M0 20C0 8.95431 8.95431 0 20 0C31.0457 0 40 8.95431 40 20C40 31.0457 31.0457 40 20 40C8.95431 40 0 31.0457 0 20Z" fill="#E8E8E8"/>
<g clip-path="url(#clip0_1029_3002)">
<path d="M20 10C14.48 10 10 14.48 10 20C10 25.52 14.48 30 20 30C25.52 30 30 25.52 30 20C30 14.48 25.52 10 20 10ZM15.35 26.5C16.66 25.56 18.26 25 20 25C21.74 25 23.34 25.56 24.65 26.5C23.34 27.44 21.74 28 20 28C18.26 28 16.66 27.44 15.35 26.5ZM26.14 25.12C24.45 23.8 22.32 23 20 23C17.68 23 15.55 23.8 13.86 25.12C12.7 23.73 12 21.95 12 20C12 15.58 15.58 12 20 12C24.42 12 28 15.58 28 20C28 21.95 27.3 23.73 26.14 25.12Z" fill="#373737"/>
<path d="M20 14C18.07 14 16.5 15.57 16.5 17.5C16.5 19.43 18.07 21 20 21C21.93 21 23.5 19.43 23.5 17.5C23.5 15.57 21.93 14 20 14ZM20 19C19.17 19 18.5 18.33 18.5 17.5C18.5 16.67 19.17 16 20 16C20.83 16 21.5 16.67 21.5 17.5C21.5 18.33 20.83 19 20 19Z" fill="#373737"/>
</g>
<defs>
<clipPath id="clip0_1029_3002">
<rect width="24" height="24" fill="white" transform="translate(8 8)"/>
</clipPath>
</defs>
</svg>
