<svg width="22" height="22" viewBox="0 0 22 22" fill="none" xmlns="http://www.w3.org/2000/svg">
<g clip-path="url(#clip0_830_1753)">
<path d="M18.5075 3.66663H3.66671C2.65837 3.66663 1.84254 4.49163 1.84254 5.49996V9.16663C2.85087 9.16663 3.66671 9.99163 3.66671 11C3.66671 12.0083 2.85087 12.8333 1.83337 12.8333V16.5C1.83337 17.5083 2.65837 18.3333 3.66671 18.3333H18.3334C19.3417 18.3333 20.1667 17.5083 20.1667 16.5V5.49996C20.1667 4.49163 19.4242 3.66663 18.5075 3.66663ZM18.3334 16.5H3.66671V14.1716C4.75754 13.5391 5.50004 12.3475 5.50004 11C5.50004 9.64329 4.76671 8.46079 3.67587 7.82829L3.66671 5.49996H18.3334V16.5ZM8.13087 14.355L6.60921 11.715L7.46171 11.4858L8.61671 12.3933L10.8075 11.8066L8.60754 7.99329L9.89087 7.64496L13.5667 11.0733L15.8034 10.4775C16.2709 10.3491 16.7567 10.6333 16.885 11.1008C17.0042 11.5683 16.7292 12.0541 16.2525 12.1916L8.13087 14.355Z" fill="#A1A1A1"/>
</g>
<defs>
<clipPath id="clip0_830_1753">
<rect width="22" height="22" fill="white"/>
</clipPath>
</defs>
</svg>
