<svg width="25" height="24" viewBox="0 0 25 24" fill="none" xmlns="http://www.w3.org/2000/svg">
<mask id="mask0_534_20544" style="mask-type:alpha" maskUnits="userSpaceOnUse" x="0" y="0" width="25" height="24">
<rect x="24.332" width="24" height="24" transform="rotate(90 24.332 0)" fill="#D9D9D9"/>
</mask>
<g mask="url(#mask0_534_20544)">
<path d="M12.3336 14.6002L19.3836 7.5502C19.6169 7.31686 19.9003 7.2002 20.2336 7.2002C20.5669 7.2002 20.8503 7.31686 21.0836 7.5502C21.3169 7.78353 21.4336 8.06686 21.4336 8.4002C21.4336 8.73353 21.3169 9.01686 21.0836 9.2502L13.6086 16.7252C13.4253 16.9085 13.2253 17.0419 13.0086 17.1252C12.7919 17.2085 12.5669 17.2502 12.3336 17.2502C12.1003 17.2502 11.8753 17.2085 11.6586 17.1252C11.4419 17.0419 11.2419 16.9085 11.0586 16.7252L3.58359 9.2502C3.35026 9.01686 3.23359 8.73353 3.23359 8.4002C3.23359 8.06686 3.35026 7.78353 3.58359 7.5502C3.81693 7.31686 4.10026 7.2002 4.43359 7.2002C4.76693 7.2002 5.05026 7.31686 5.28359 7.5502L12.3336 14.6002Z" fill="#2A2A2D"/>
</g>
</svg>
