<svg width="25" height="24" viewBox="0 0 25 24" fill="none" xmlns="http://www.w3.org/2000/svg">
<mask id="mask0_534_20551" style="mask-type:alpha" maskUnits="userSpaceOnUse" x="0" y="0" width="25" height="24">
<rect x="0.332031" y="24" width="24" height="24" transform="rotate(-90 0.332031 24)" fill="#D9D9D9"/>
</mask>
<g mask="url(#mask0_534_20551)">
<path d="M12.3305 9.3998L5.28047 16.4498C5.04714 16.6831 4.7638 16.7998 4.43047 16.7998C4.09714 16.7998 3.8138 16.6831 3.58047 16.4498C3.34714 16.2165 3.23047 15.9331 3.23047 15.5998C3.23047 15.2665 3.34714 14.9831 3.58047 14.7498L11.0555 7.2748C11.2388 7.09147 11.4388 6.95814 11.6555 6.8748C11.8721 6.79147 12.0971 6.7498 12.3305 6.7498C12.5638 6.7498 12.7888 6.79147 13.0055 6.8748C13.2221 6.95814 13.4221 7.09147 13.6055 7.2748L21.0805 14.7498C21.3138 14.9831 21.4305 15.2665 21.4305 15.5998C21.4305 15.9331 21.3138 16.2165 21.0805 16.4498C20.8471 16.6831 20.5638 16.7998 20.2305 16.7998C19.8971 16.7998 19.6138 16.6831 19.3805 16.4498L12.3305 9.3998Z" fill="#2A2A2D"/>
</g>
</svg>
