<svg width="64" height="24" viewBox="0 0 64 24" fill="none" xmlns="http://www.w3.org/2000/svg">
<mask id="mask0_875_19846" style="mask-type:alpha" maskUnits="userSpaceOnUse" x="0" y="0" width="24" height="24">
<rect width="24" height="24" fill="#D9D9D9"/>
</mask>
<g mask="url(#mask0_875_19846)">
<path d="M2.725 11.4879L10.075 18.8379C10.325 19.0879 10.4458 19.3796 10.4375 19.7129C10.4292 20.0462 10.3 20.3379 10.05 20.5879C9.8 20.8379 9.50833 20.9629 9.175 20.9629C8.84167 20.9629 8.55 20.8379 8.3 20.5879L0.6 12.9129C0.4 12.7129 0.25 12.4879 0.15 12.2379C0.05 11.9879 0 11.7379 0 11.4879C0 11.2379 0.05 10.9879 0.15 10.7379C0.25 10.4879 0.4 10.2629 0.6 10.0629L8.3 2.3629C8.55 2.1129 8.84583 1.99207 9.1875 2.0004C9.52917 2.00874 9.825 2.1379 10.075 2.3879C10.325 2.6379 10.45 2.92957 10.45 3.2629C10.45 3.59624 10.325 3.8879 10.075 4.1379L2.725 11.4879Z" fill="#D40918"/>
</g>
<path d="M32.7031 12.3447H30.1807L30.167 11.2852H32.457C32.8353 11.2852 33.1657 11.2214 33.4482 11.0938C33.7308 10.9661 33.9495 10.7839 34.1045 10.5469C34.264 10.3053 34.3438 10.0182 34.3438 9.68555C34.3438 9.32096 34.2731 9.02474 34.1318 8.79688C33.9951 8.56445 33.7832 8.39583 33.4961 8.29102C33.2135 8.18164 32.8535 8.12695 32.416 8.12695H30.4746V17H29.1553V7.04688H32.416C32.9264 7.04688 33.3822 7.09928 33.7832 7.2041C34.1842 7.30436 34.5238 7.46387 34.8018 7.68262C35.0843 7.89681 35.2985 8.17025 35.4443 8.50293C35.5902 8.83561 35.6631 9.23438 35.6631 9.69922C35.6631 10.1094 35.5583 10.4808 35.3486 10.8135C35.139 11.1416 34.8473 11.4105 34.4736 11.6201C34.1045 11.8298 33.6715 11.9642 33.1748 12.0234L32.7031 12.3447ZM32.6416 17H29.6611L30.4062 15.9268H32.6416C33.0609 15.9268 33.4163 15.8538 33.708 15.708C34.0042 15.5622 34.2298 15.3571 34.3848 15.0928C34.5397 14.8239 34.6172 14.5072 34.6172 14.1426C34.6172 13.7734 34.5511 13.4544 34.4189 13.1855C34.2868 12.9167 34.0794 12.7093 33.7969 12.5635C33.5143 12.4176 33.1497 12.3447 32.7031 12.3447H30.8232L30.8369 11.2852H33.4072L33.6875 11.668C34.166 11.709 34.5716 11.8457 34.9043 12.0781C35.237 12.306 35.4899 12.5977 35.6631 12.9531C35.8408 13.3086 35.9297 13.7005 35.9297 14.1289C35.9297 14.7487 35.793 15.2728 35.5195 15.7012C35.2507 16.125 34.8701 16.4486 34.3779 16.6719C33.8857 16.8906 33.307 17 32.6416 17ZM42.0479 15.7354V11.9277C42.0479 11.6361 41.9886 11.3831 41.8701 11.1689C41.7562 10.9502 41.583 10.7816 41.3506 10.6631C41.1182 10.5446 40.8311 10.4854 40.4893 10.4854C40.1702 10.4854 39.89 10.54 39.6484 10.6494C39.4115 10.7588 39.2246 10.9023 39.0879 11.0801C38.9557 11.2578 38.8896 11.4492 38.8896 11.6543H37.625C37.625 11.39 37.6934 11.1279 37.8301 10.8682C37.9668 10.6084 38.1628 10.3737 38.418 10.1641C38.6777 9.94987 38.9876 9.78125 39.3477 9.6582C39.7122 9.5306 40.1178 9.4668 40.5645 9.4668C41.1022 9.4668 41.5762 9.55794 41.9863 9.74023C42.401 9.92253 42.7246 10.1982 42.957 10.5674C43.194 10.932 43.3125 11.39 43.3125 11.9414V15.3867C43.3125 15.6328 43.333 15.8949 43.374 16.1729C43.4196 16.4508 43.4857 16.6901 43.5723 16.8906V17H42.2529C42.1891 16.8542 42.139 16.6605 42.1025 16.4189C42.0661 16.1729 42.0479 15.945 42.0479 15.7354ZM42.2666 12.5156L42.2803 13.4043H41.002C40.6419 13.4043 40.3206 13.4339 40.0381 13.4932C39.7555 13.5479 39.5186 13.6322 39.3271 13.7461C39.1357 13.86 38.9899 14.0036 38.8896 14.1768C38.7894 14.3454 38.7393 14.5436 38.7393 14.7715C38.7393 15.0039 38.7917 15.2158 38.8965 15.4072C39.0013 15.5986 39.1585 15.7513 39.3682 15.8652C39.5824 15.9746 39.8444 16.0293 40.1543 16.0293C40.5417 16.0293 40.8835 15.9473 41.1797 15.7832C41.4759 15.6191 41.7106 15.4186 41.8838 15.1816C42.0615 14.9447 42.1572 14.7145 42.1709 14.4912L42.7109 15.0996C42.679 15.291 42.5924 15.5029 42.4512 15.7354C42.3099 15.9678 42.1208 16.1911 41.8838 16.4053C41.6514 16.6149 41.3734 16.7904 41.0498 16.9316C40.7308 17.0684 40.3708 17.1367 39.9697 17.1367C39.4684 17.1367 39.0286 17.0387 38.6504 16.8428C38.2767 16.6468 37.985 16.3848 37.7754 16.0566C37.5703 15.724 37.4678 15.3525 37.4678 14.9424C37.4678 14.5459 37.5452 14.1973 37.7002 13.8965C37.8551 13.5911 38.0785 13.3382 38.3701 13.1377C38.6618 12.9326 39.0127 12.7777 39.4229 12.6729C39.833 12.568 40.291 12.5156 40.7969 12.5156H42.2666ZM48.2617 16.0977C48.5625 16.0977 48.8405 16.0361 49.0957 15.9131C49.3509 15.79 49.5605 15.6214 49.7246 15.4072C49.8887 15.1885 49.9821 14.9401 50.0049 14.6621H51.208C51.1852 15.0996 51.0371 15.5075 50.7637 15.8857C50.4948 16.2594 50.1416 16.5625 49.7041 16.7949C49.2666 17.0228 48.7858 17.1367 48.2617 17.1367C47.7057 17.1367 47.2204 17.0387 46.8057 16.8428C46.3955 16.6468 46.0537 16.3779 45.7803 16.0361C45.5114 15.6943 45.3086 15.3024 45.1719 14.8604C45.0397 14.4137 44.9736 13.9421 44.9736 13.4453V13.1582C44.9736 12.6615 45.0397 12.1921 45.1719 11.75C45.3086 11.3034 45.5114 10.9092 45.7803 10.5674C46.0537 10.2256 46.3955 9.95671 46.8057 9.76074C47.2204 9.56478 47.7057 9.4668 48.2617 9.4668C48.8405 9.4668 49.3464 9.58529 49.7793 9.82227C50.2122 10.0547 50.5518 10.3737 50.7979 10.7793C51.0485 11.1803 51.1852 11.6361 51.208 12.1465H50.0049C49.9821 11.8411 49.8955 11.5654 49.7451 11.3193C49.5993 11.0732 49.3988 10.8773 49.1436 10.7314C48.8929 10.5811 48.599 10.5059 48.2617 10.5059C47.8743 10.5059 47.5485 10.5833 47.2842 10.7383C47.0244 10.8887 46.8171 11.0938 46.6621 11.3535C46.5117 11.6087 46.4023 11.8936 46.334 12.208C46.2702 12.5179 46.2383 12.8346 46.2383 13.1582V13.4453C46.2383 13.7689 46.2702 14.0879 46.334 14.4023C46.3978 14.7168 46.5049 15.0016 46.6553 15.2568C46.8102 15.512 47.0176 15.7171 47.2773 15.8721C47.5417 16.0225 47.8698 16.0977 48.2617 16.0977ZM53.9014 6.5V17H52.6299V6.5H53.9014ZM58.4199 9.60352L55.1934 13.0557L53.3887 14.9287L53.2861 13.582L54.5781 12.0371L56.875 9.60352H58.4199ZM57.2646 17L54.626 13.4727L55.2822 12.3447L58.7549 17H57.2646Z" fill="#D40918"/>
</svg>
