<svg width="40" height="40" viewBox="0 0 40 40" fill="none" xmlns="http://www.w3.org/2000/svg">
<path d="M0 20C0 8.95431 8.95431 0 20 0C31.0457 0 40 8.95431 40 20C40 31.0457 31.0457 40 20 40C8.95431 40 0 31.0457 0 20Z" fill="#E8E8E8"/>
<path d="M30 14V26C30 26.55 29.8043 27.021 29.413 27.413C29.021 27.8043 28.55 28 28 28H12C11.45 28 10.9793 27.8043 10.588 27.413C10.196 27.021 10 26.55 10 26V14C10 13.45 10.196 12.9793 10.588 12.588C10.9793 12.196 11.45 12 12 12H28C28.55 12 29.021 12.196 29.413 12.588C29.8043 12.9793 30 13.45 30 14ZM12 16H28V14H12V16ZM12 20V26H28V20H12Z" fill="#373737"/>
</svg>
