<svg width="20" height="20" viewBox="0 0 20 20" fill="none" xmlns="http://www.w3.org/2000/svg">
<g clip-path="url(#clip0_695_484)">
<path d="M10.7418 9.25004C9.2585 8.75837 8.54183 8.45004 8.54183 7.66671C8.54183 6.81671 9.46683 6.50837 10.0502 6.50837C11.1418 6.50837 11.5418 7.33337 11.6335 7.62504L12.9502 7.06671C12.8252 6.69171 12.2668 5.46671 10.8335 5.20004V4.16671H9.16683V5.21671C7.10016 5.68337 7.09183 7.60004 7.09183 7.68337C7.09183 9.57504 8.96683 10.1084 9.8835 10.4417C11.2002 10.9084 11.7835 11.3334 11.7835 12.1334C11.7835 13.075 10.9085 13.475 10.1335 13.475C8.61683 13.475 8.1835 11.9167 8.1335 11.7334L6.75016 12.2917C7.27516 14.1167 8.65016 14.6084 9.16683 14.7584V15.8334H10.8335V14.8C11.1668 14.725 13.2502 14.3084 13.2502 12.1167C13.2502 10.9584 12.7418 9.94171 10.7418 9.25004ZM2.50016 17.5H0.833496V12.5H5.8335V14.1667H3.76683C5.1085 16.175 7.40016 17.5 10.0002 17.5C14.1418 17.5 17.5002 14.1417 17.5002 10H19.1668C19.1668 15.0667 15.0668 19.1667 10.0002 19.1667C6.90016 19.1667 4.1585 17.625 2.50016 15.275V17.5ZM0.833496 10C0.833496 4.93337 4.9335 0.833374 10.0002 0.833374C13.1002 0.833374 15.8418 2.37504 17.5002 4.72504V2.50004H19.1668V7.50004H14.1668V5.83337H16.2335C14.8918 3.82504 12.6002 2.50004 10.0002 2.50004C5.8585 2.50004 2.50016 5.85837 2.50016 10H0.833496Z" fill="white"/>
</g>
<defs>
<clipPath id="clip0_695_484">
<rect width="20" height="20" fill="white"/>
</clipPath>
</defs>
</svg>
