<svg width="32" height="32" viewBox="0 0 32 32" fill="none" xmlns="http://www.w3.org/2000/svg">
<path d="M6 0.5H26C29.0376 0.5 31.5 2.96243 31.5 6V26C31.5 29.0376 29.0376 31.5 26 31.5H6C2.96243 31.5 0.5 29.0376 0.5 26V6C0.5 2.96243 2.96243 0.5 6 0.5Z" fill="white"/>
<path d="M6 0.5H26C29.0376 0.5 31.5 2.96243 31.5 6V26C31.5 29.0376 29.0376 31.5 26 31.5H6C2.96243 31.5 0.5 29.0376 0.5 26V6C0.5 2.96243 2.96243 0.5 6 0.5Z" stroke="#D0D0D0"/>
<g clip-path="url(#clip0_977_890)">
<path d="M20.75 18.375V20.75H11.25V18.375H9.66663V20.75C9.66663 21.6208 10.3791 22.3333 11.25 22.3333H20.75C21.6208 22.3333 22.3333 21.6208 22.3333 20.75V18.375H20.75ZM19.9583 15.2083L18.842 14.092L16.7916 16.1345V9.66663H15.2083V16.1345L13.1579 14.092L12.0416 15.2083L16 19.1666L19.9583 15.2083Z" fill="#8A8A8A"/>
</g>
<defs>
<clipPath id="clip0_977_890">
<rect width="19" height="19" fill="white" transform="translate(6.5 6.5)"/>
</clipPath>
</defs>
</svg>
