<!DOCTYPE svg PUBLIC "-//W3C//DTD SVG 1.1//EN" "http://www.w3.org/Graphics/SVG/1.1/DTD/svg11.dtd">
<!-- Uploaded to: SVG Repo, www.svgrepo.com, Transformed by: SVG Repo Mixer Tools -->
<svg version="1.1" id="Icons" xmlns="http://www.w3.org/2000/svg" xmlns:xlink="http://www.w3.org/1999/xlink" viewBox="0 0 32 32" xml:space="preserve" width="800px" height="800px" fill="#1076BB">
<g id="SVGRepo_bgCarrier" stroke-width="0"/>
<g id="SVGRepo_tracerCarrier" stroke-linecap="round" stroke-linejoin="round"/>
<g id="SVGRepo_iconCarrier"> <style type="text/css"> .st0{fill:none;stroke:#000000;stroke-width:2;stroke-linecap:round;stroke-linejoin:round;stroke-miterlimit:10;} .st1{fill:none;stroke:#000000;stroke-width:2;stroke-linejoin:round;stroke-miterlimit:10;} </style> <polyline class="st0" points="18,3 18,9 24,9 18,3 6,3 6,29 24,29 24,22 "/> <line class="st0" x1="24" y1="9" x2="24" y2="12"/> <path class="st0" d="M24,22l-1.5,1.5c-1.4,1.4-3.6,1.4-5,0l0,0c-1.4-1.4-1.4-3.6,0-5L19,17"/> <path class="st0" d="M21,15l1.5-1.5c1.4-1.4,3.6-1.4,5,0l0,0c1.4,1.4,1.4,3.6,0,5L26,20"/> <line class="st0" x1="21" y1="20" x2="24" y2="17"/> </g>
</svg>