<svg width="32" height="32" viewBox="0 0 32 32" fill="none" xmlns="http://www.w3.org/2000/svg">
<path d="M6 0.5H26C29.0376 0.5 31.5 2.96243 31.5 6V26C31.5 29.0376 29.0376 31.5 26 31.5H6C2.96243 31.5 0.5 29.0376 0.5 26V6C0.5 2.96243 2.96243 0.5 6 0.5Z" fill="white"/>
<path d="M6 0.5H26C29.0376 0.5 31.5 2.96243 31.5 6V26C31.5 29.0376 29.0376 31.5 26 31.5H6C2.96243 31.5 0.5 29.0376 0.5 26V6C0.5 2.96243 2.96243 0.5 6 0.5Z" stroke="#D0D0D0"/>
<g clip-path="url(#clip0_977_877)">
<path d="M14.4167 20.75H17.5833V19.1667H14.4167V20.75ZM8.875 11.25V12.8333H23.125V11.25H8.875ZM11.25 16.7917H20.75V15.2083H11.25V16.7917Z" fill="#8A8A8A"/>
</g>
<defs>
<clipPath id="clip0_977_877">
<rect width="19" height="19" fill="white" transform="translate(6.5 6.5)"/>
</clipPath>
</defs>
</svg>
