<svg width="20" height="20" viewBox="0 0 20 20" fill="none" xmlns="http://www.w3.org/2000/svg">
<path d="M6.66667 11.375V5.83334C6.66667 5.59723 6.74653 5.39931 6.90625 5.23959C7.06597 5.07987 7.26389 5.00001 7.5 5.00001H8.33333C8.56944 5.00001 8.76736 5.07987 8.92708 5.23959C9.08681 5.39931 9.16667 5.59723 9.16667 5.83334V11.375L9.0625 11.2708C8.74306 10.9653 8.36111 10.8125 7.91667 10.8125C7.47222 10.8125 7.09028 10.9653 6.77083 11.2708L6.66667 11.375ZM10.8333 12.625V2.50001C10.8333 2.26389 10.9132 2.06598 11.0729 1.90626C11.2326 1.74653 11.4306 1.66667 11.6667 1.66667H12.5C12.7361 1.66667 12.934 1.74653 13.0937 1.90626C13.2535 2.06598 13.3333 2.26389 13.3333 2.50001V10.125L10.8333 12.625ZM2.5 15.5V9.16667C2.5 8.93056 2.57986 8.73264 2.73958 8.57292C2.89931 8.4132 3.09722 8.33334 3.33333 8.33334H4.16667C4.40278 8.33334 4.60069 8.4132 4.76042 8.57292C4.92014 8.73264 5 8.93056 5 9.16667V13L2.5 15.5ZM4.5 17.5417C4.13889 17.5417 3.88542 17.3715 3.73958 17.0313C3.59375 16.691 3.65278 16.3889 3.91667 16.125L7.33333 12.7083C7.48611 12.5556 7.67014 12.4722 7.88542 12.4583C8.10069 12.4444 8.29167 12.5139 8.45833 12.6667L10.8333 14.7083L15.5 10.0417H15C14.7639 10.0417 14.566 9.96181 14.4062 9.80209C14.2465 9.64237 14.1667 9.44445 14.1667 9.20834C14.1667 8.97223 14.2465 8.77431 14.4062 8.61459C14.566 8.45487 14.7639 8.37501 15 8.37501H17.5C17.7361 8.37501 17.934 8.45487 18.0937 8.61459C18.2535 8.77431 18.3333 8.97223 18.3333 9.20834V11.7083C18.3333 11.9444 18.2535 12.1424 18.0937 12.3021C17.934 12.4618 17.7361 12.5417 17.5 12.5417C17.2639 12.5417 17.066 12.4618 16.9062 12.3021C16.7465 12.1424 16.6667 11.9444 16.6667 11.7083V11.2083L11.4583 16.4167C11.3056 16.5695 11.1215 16.6528 10.9062 16.6667C10.691 16.6806 10.5 16.6111 10.3333 16.4583L7.95833 14.4167L5.08333 17.2917C5.01389 17.3611 4.92708 17.4201 4.82292 17.4688C4.71875 17.5174 4.61111 17.5417 4.5 17.5417Z" fill="white"/>
</svg>
