<svg width="116" height="32" viewBox="0 0 116 32" fill="none" xmlns="http://www.w3.org/2000/svg">
<path d="M2.02656e-05 16C2.02656e-05 17.4728 1.19393 18.6667 2.66669 18.6667C4.13945 18.6667 5.33335 17.4728 5.33335 16C5.33335 14.5272 4.13945 13.3333 2.66669 13.3333C1.19393 13.3333 2.02656e-05 14.5272 2.02656e-05 16ZM110 16C110 17.4728 111.194 18.6667 112.667 18.6667C114.139 18.6667 115.333 17.4728 115.333 16C115.333 14.5272 114.139 13.3333 112.667 13.3333C111.194 13.3333 110 14.5272 110 16ZM2.66669 16V16.5H3.64883V16V15.5H2.66669V16ZM5.61312 16V16.5H7.5774V16V15.5L5.61312 15.5V16ZM9.54169 16V16.5L11.506 16.5V16V15.5H9.54169V16ZM13.4703 16V16.5H15.4345V16V15.5H13.4703V16ZM17.3988 16V16.5H19.3631V16V15.5H17.3988V16ZM21.3274 16V16.5H23.2917V16V15.5H21.3274V16ZM25.256 16V16.5H27.2203V16V15.5H25.256V16ZM29.1845 16V16.5H31.1488V16V15.5H29.1845V16ZM33.1131 16V16.5H35.0774V16V15.5H33.1131V16ZM37.0417 16V16.5H39.006V16V15.5H37.0417V16ZM40.9703 16V16.5H42.9345V16V15.5L40.9703 15.5V16ZM44.8988 16V16.5H46.8631V16V15.5H44.8988V16ZM48.8274 16V16.5H50.7917V16V15.5L48.8274 15.5V16ZM52.756 16V16.5L54.7203 16.5V16V15.5H52.756V16ZM56.6846 16V16.5H58.6488V16V15.5L56.6846 15.5V16ZM60.6131 16V16.5H62.5774V16V15.5H60.6131V16ZM64.5417 16V16.5H66.506V16V15.5H64.5417V16ZM68.4703 16V16.5H70.4346V16V15.5H68.4703V16ZM72.3988 16V16.5H74.3631V16V15.5H72.3988V16ZM76.3274 16V16.5H78.2917V16V15.5H76.3274V16ZM80.256 16V16.5H82.2203V16V15.5H80.256V16ZM84.1846 16V16.5H86.1488V16V15.5L84.1846 15.5V16ZM88.1131 16V16.5H90.0774V16V15.5H88.1131V16ZM92.0417 16V16.5H94.006V16V15.5L92.0417 15.5V16ZM95.9703 16V16.5L97.9346 16.5V16V15.5H95.9703V16ZM99.8989 16V16.5H101.863V16V15.5L99.8989 15.5V16ZM103.827 16V16.5H105.792V16V15.5H103.827V16ZM107.756 16V16.5H109.72V16V15.5L107.756 15.5V16ZM111.685 16V16.5H112.667V16V15.5H111.685V16Z" fill="#A1A1A1"/>
<g clip-path="url(#clip0_495_616)">
<path d="M53.5891 13.229L54.7647 13.229L55.9683 14.8244L60.3346 14.8244L58.3474 8.07889L59.9148 8.07889L63.8893 14.7964L68.2277 14.8244C68.5449 14.8244 68.8202 14.941 69.0534 15.1743C69.2867 15.4075 69.4033 15.6827 69.4033 16C69.4033 16.3172 69.2867 16.5924 69.0534 16.8257C68.8202 17.0589 68.5449 17.1755 68.2277 17.1755L63.8893 17.2035L59.9148 23.921L58.3474 23.921L60.3346 17.1755H55.9683L54.7647 18.7709H53.5891L54.4008 16L53.5891 13.229Z" fill="#B9B9B9"/>
</g>
<defs>
<clipPath id="clip0_495_616">
<rect width="19" height="19" fill="white" transform="translate(60.1667 2.56494) rotate(45)"/>
</clipPath>
</defs>
</svg>
