<svg width="28" height="28" viewBox="0 0 28 28" fill="none" xmlns="http://www.w3.org/2000/svg">
<path d="M4.25833 17.9667L5.48333 16.7417L8.4 17.15L12.95 12.6L3.85 7.64165L5.48333 6.00832L16.625 8.86665L21.175 4.37498C21.5056 4.04443 21.9139 3.87915 22.4 3.87915C22.8861 3.87915 23.2944 4.04443 23.625 4.37498C23.9556 4.70554 24.1208 5.11387 24.1208 5.59998C24.1208 6.08609 23.9556 6.49443 23.625 6.82498L19.1333 11.375L21.9917 22.5167L20.3583 24.15L15.4 15.05L10.85 19.6L11.2583 22.5167L10.0333 23.7416L7.99167 20.0083L4.25833 17.9667Z" fill="#0D5E96"/>
</svg>
