<svg width="141" height="48" viewBox="0 0 141 48" fill="none" xmlns="http://www.w3.org/2000/svg">
<g clip-path="url(#clip0_16_243)">
<path d="M131.13 7.05883C135.452 9.76334 138.134 13.4649 139.59 18.3529C140.392 24.4199 140.057 29.3538 136.836 34.6213C135.893 36.0446 135.893 36.0446 136.065 38.1176C137.15 39.4073 137.15 39.4073 138.533 40.6324C139.38 41.4151 140.208 42.2197 141 43.0588C141 43.5247 141 43.9906 141 44.4706C139.399 44.5277 137.798 44.5688 136.197 44.6029C134.86 44.6398 134.86 44.6398 133.496 44.6774C131.13 44.4706 131.13 44.4706 129.882 43.3897C129.596 43.0476 129.31 42.7054 129.015 42.3529C127.902 42.4741 126.789 42.6107 125.688 42.8162C118.584 43.8881 112.942 43.2527 107.028 39.171C102.345 35.4646 100.294 31.2427 99.4931 25.3676C99.136 19.5843 100.819 15.1547 104.34 10.5882C111.597 3.1528 122.144 2.06041 131.13 7.05883ZM109.407 16.7206C107.466 19.6632 106.965 21.9131 107.16 25.4118C108.335 29.7507 110.67 32.0429 114.21 34.5882C115.99 35.4793 117.25 35.3637 119.233 35.3382C119.875 35.3319 120.516 35.3255 121.177 35.3189C121.67 35.3107 122.163 35.3026 122.67 35.2941C122.261 34.8205 122.261 34.8205 121.844 34.3373C121.477 33.9106 121.11 33.4838 120.731 33.0441C120.371 32.6265 120.011 32.2088 119.641 31.7785C118.27 30.1507 116.943 28.4907 115.62 26.8235C123.609 26.174 123.609 26.174 126.492 27.7665C127.672 28.8059 128.726 29.8423 129.72 31.0588C131.78 28.1889 132.634 25.4037 132.54 21.8824C131.345 17.5462 129.032 15.2525 125.49 12.7059C119.471 9.69249 113.759 12.557 109.407 16.7206Z" fill="#F06367"/>
<path d="M52.17 4.23529C67.6782 4.23529 67.6782 4.23529 71.9513 7.44209C74.4686 10.4481 75.7612 12.9534 75.435 16.9412C74.785 20.048 73.8704 22.0646 71.5575 24.2647C70.9759 24.6432 70.3942 25.0218 69.795 25.4118C69.097 25.8776 68.3991 26.3435 67.68 26.8235C67.9576 27.2475 68.2353 27.6715 68.5213 28.1083C69.77 30.0172 71.0163 31.9277 72.2625 33.8382C72.6996 34.5057 73.1367 35.1731 73.5871 35.8608C74.0006 36.4954 74.4141 37.1301 74.8401 37.784C75.2241 38.3718 75.6081 38.9595 76.0037 39.5651C76.845 40.9412 76.845 40.9412 76.845 41.6471C73.582 42.3384 70.9135 42.5533 67.68 41.6471C64.5515 38.7598 62.5925 34.7848 60.63 31.0588C60.3973 34.5529 60.1647 38.0471 59.925 41.6471C57.3658 41.6471 54.8067 41.6471 52.17 41.6471C52.17 29.3012 52.17 16.9553 52.17 4.23529ZM59.925 11.2941C59.925 14.3223 59.925 17.3506 59.925 20.4706C63.7987 20.3476 63.7987 20.3476 67.019 18.5294C67.8896 16.4374 67.8339 15.5079 66.975 13.4118C64.3848 11.3226 63.3954 11.2941 59.925 11.2941Z" fill="#1076BB"/>
<path d="M16.215 4.94118C17.5397 5.14697 17.5397 5.14697 19.035 5.64706C20.0988 7.48286 20.9655 9.22086 21.8082 11.1563C22.0619 11.7165 22.3155 12.2768 22.5769 12.8541C23.3888 14.6534 24.1863 16.4588 24.9834 18.2647C25.5172 19.4545 26.0519 20.6438 26.5876 21.8327C27.6155 24.1172 28.6362 26.4047 29.651 28.6951C31.0515 31.8506 32.5053 34.9801 33.9861 38.0987C34.545 39.5294 34.545 39.5294 34.545 41.6471C31.9859 41.6471 29.4267 41.6471 26.79 41.6471C25.6268 39.0847 24.4635 36.5224 23.265 33.8824C19.31 33.8824 15.3549 33.8824 11.28 33.8824C10.1168 36.4447 8.9535 39.0071 7.755 41.6471C5.19585 41.6471 2.6367 41.6471 0 41.6471C0.657619 38.3549 1.69765 35.6746 3.09264 32.6664C3.33198 32.1431 3.57132 31.6198 3.81791 31.0806C4.32523 29.9733 4.83436 28.8669 5.34516 27.7612C6.1134 26.098 6.87618 24.4323 7.63796 22.7661C10.3887 16.7671 13.2121 10.8186 16.215 4.94118ZM16.92 19.7647C15.9894 22.0941 15.0588 24.4235 14.1 26.8235C16.1939 26.8235 18.2877 26.8235 20.445 26.8235C19.5144 24.4941 18.5838 22.1647 17.625 19.7647C17.3924 19.7647 17.1597 19.7647 16.92 19.7647Z" fill="#1076BB"/>
<path d="M88.83 4.23529C91.1565 4.23529 93.483 4.23529 95.88 4.23529C96.7842 12.2021 96.5126 20.0589 96.2766 28.0588C96.239 29.4485 96.2018 30.8382 96.165 32.2279C96.0749 35.6031 95.979 38.978 95.88 42.3529C93.5535 42.3529 91.227 42.3529 88.83 42.3529C88.7113 37.8321 88.5982 33.3113 88.4901 28.7902C88.4526 27.2539 88.4136 25.7176 88.373 24.1813C88.3149 21.9665 88.2621 19.7517 88.2104 17.5368C88.1913 16.8557 88.1723 16.1745 88.1526 15.4728C88.0691 11.6405 88.2516 8.02598 88.83 4.23529Z" fill="#F16367"/>
<path d="M38.775 4.23529C41.1015 4.23529 43.428 4.23529 45.825 4.23529C45.825 16.5812 45.825 28.9271 45.825 41.6471C43.4985 41.6471 41.172 41.6471 38.775 41.6471C38.775 29.3012 38.775 16.9553 38.775 4.23529Z" fill="#1076BB"/>
<path d="M114.915 26.1177C123.472 25.369 123.472 25.369 126.366 27.0193C127.62 28.2952 128.668 29.6121 129.72 31.0588C130.505 31.9772 131.299 32.8889 132.099 33.7941C132.698 34.4929 132.698 34.4929 133.308 35.2059C135.359 37.4905 137.571 39.6051 139.786 41.7298C141 43.0588 141 43.0588 141 44.4706C132.58 45.5499 132.58 45.5499 129.186 43.023C127.608 41.2156 126.183 39.3611 124.785 37.4118C124.203 36.8294 123.622 36.2471 123.022 35.6471C120.2 32.8215 117.5 29.8684 114.915 26.8235C114.915 26.5906 114.915 26.3577 114.915 26.1177Z" fill="#1C75B7"/>
<path d="M88.83 4.23529C91.1565 4.23529 93.483 4.23529 95.88 4.23529C96.1126 7.03058 96.3453 9.82588 96.585 12.7059C93.7932 12.7059 91.0014 12.7059 88.125 12.7059C88.3576 9.91058 88.5903 7.11529 88.83 4.23529Z" fill="#F16367"/>
<path d="M88.125 9.88235C90.9168 9.88235 93.7086 9.88235 96.585 9.88235C96.585 10.8141 96.585 11.7459 96.585 12.7059C93.7932 12.7059 91.0014 12.7059 88.125 12.7059C88.125 11.7741 88.125 10.8424 88.125 9.88235Z" fill="#FEFDFD"/>
</g>
<defs>
<clipPath id="clip0_16_243">
<rect width="141" height="48" fill="white"/>
</clipPath>
</defs>
</svg>
