<svg width="20" height="20" viewBox="0 0 20 20" fill="none" xmlns="http://www.w3.org/2000/svg">
<path d="M5.83335 18.3333V17.5C5.37502 17.5 4.98266 17.3368 4.65627 17.0104C4.32988 16.684 4.16669 16.2917 4.16669 15.8333V6.66667C4.16669 6.20834 4.32988 5.81598 4.65627 5.48959C4.98266 5.1632 5.37502 5 5.83335 5H7.50002V2.50001C7.50002 2.26389 7.57988 2.06598 7.7396 1.90626C7.89933 1.74653 8.09724 1.66667 8.33335 1.66667H11.6667C11.9028 1.66667 12.1007 1.74653 12.2604 1.90626C12.4202 2.06598 12.5 2.26389 12.5 2.50001V5H14.1667C14.625 5 15.0174 5.1632 15.3438 5.48959C15.6702 5.81598 15.8334 6.20834 15.8334 6.66667V15.8333C15.8334 16.2917 15.6702 16.684 15.3438 17.0104C15.0174 17.3368 14.625 17.5 14.1667 17.5V18.3333H12.5V17.5H7.50002V18.3333H5.83335ZM9.16669 5H10.8334V3.33334H9.16669V5ZM10 10C10.7361 10 11.4549 9.90625 12.1563 9.71875C12.8577 9.53125 13.5278 9.25 14.1667 8.875V6.66667H5.83335V8.875C6.47224 9.25 7.14238 9.53125 7.84377 9.71875C8.54516 9.90625 9.26391 10 10 10ZM9.16669 12.5V11.625C8.58335 11.5556 8.01391 11.4514 7.45835 11.3125C6.9028 11.1736 6.36113 10.9861 5.83335 10.75V15.8333H14.1667V10.75C13.6389 10.9861 13.0972 11.1736 12.5417 11.3125C11.9861 11.4514 11.4167 11.5556 10.8334 11.625V12.5H9.16669Z" fill="#A1A1A1"/>
</svg>
