<svg width="20" height="20" viewBox="0 0 20 20" fill="none" xmlns="http://www.w3.org/2000/svg">
<path d="M8.33329 10C7.41663 10 6.6319 9.67361 5.97913 9.02083C5.32635 8.36805 4.99996 7.58333 4.99996 6.66666C4.99996 5.74999 5.32635 4.96527 5.97913 4.3125C6.6319 3.65972 7.41663 3.33333 8.33329 3.33333C9.24996 3.33333 10.0347 3.65972 10.6875 4.3125C11.3402 4.96527 11.6666 5.74999 11.6666 6.66666C11.6666 7.58333 11.3402 8.36805 10.6875 9.02083C10.0347 9.67361 9.24996 10 8.33329 10ZM1.66663 16.6667V14.3333C1.66663 13.875 1.78468 13.4444 2.02079 13.0417C2.2569 12.6389 2.58329 12.3333 2.99996 12.125C3.70829 11.7639 4.5069 11.4583 5.39579 11.2083C6.28468 10.9583 7.26385 10.8333 8.33329 10.8333H8.62496C8.70829 10.8333 8.79163 10.8472 8.87496 10.875C8.76385 11.125 8.66996 11.3856 8.59329 11.6567C8.51718 11.9272 8.45829 12.2083 8.41663 12.5H8.33329C7.34718 12.5 6.46163 12.625 5.67663 12.875C4.89218 13.125 4.24996 13.375 3.74996 13.625C3.62496 13.6944 3.5244 13.7917 3.44829 13.9167C3.37163 14.0417 3.33329 14.1806 3.33329 14.3333V15H8.58329C8.66663 15.2917 8.77774 15.58 8.91663 15.865C9.05552 16.1494 9.20829 16.4167 9.37496 16.6667H1.66663ZM13.3333 17.5L13.0833 16.25C12.9166 16.1806 12.7602 16.1078 12.6141 16.0317C12.4686 15.955 12.3194 15.8611 12.1666 15.75L10.9583 16.125L10.125 14.7083L11.0833 13.875C11.0555 13.6806 11.0416 13.5 11.0416 13.3333C11.0416 13.1667 11.0555 12.9861 11.0833 12.7917L10.125 11.9583L10.9583 10.5417L12.1666 10.9167C12.3194 10.8056 12.4686 10.7117 12.6141 10.635C12.7602 10.5589 12.9166 10.4861 13.0833 10.4167L13.3333 9.16666H15L15.25 10.4167C15.4166 10.4861 15.573 10.5625 15.7191 10.6458C15.8647 10.7292 16.0138 10.8333 16.1666 10.9583L17.375 10.5417L18.2083 12L17.25 12.8333C17.2777 13 17.2916 13.1736 17.2916 13.3542C17.2916 13.5347 17.2777 13.7083 17.25 13.875L18.2083 14.7083L17.375 16.125L16.1666 15.75C16.0138 15.8611 15.8647 15.955 15.7191 16.0317C15.573 16.1078 15.4166 16.1806 15.25 16.25L15 17.5H13.3333ZM14.1666 15C14.625 15 15.0175 14.8369 15.3441 14.5108C15.6702 14.1842 15.8333 13.7917 15.8333 13.3333C15.8333 12.875 15.6702 12.4825 15.3441 12.1558C15.0175 11.8297 14.625 11.6667 14.1666 11.6667C13.7083 11.6667 13.3161 11.8297 12.99 12.1558C12.6633 12.4825 12.5 12.875 12.5 13.3333C12.5 13.7917 12.6633 14.1842 12.99 14.5108C13.3161 14.8369 13.7083 15 14.1666 15ZM8.33329 8.33333C8.79163 8.33333 9.18413 8.16999 9.51079 7.84333C9.8369 7.51722 9.99996 7.12499 9.99996 6.66666C9.99996 6.20833 9.8369 5.81611 9.51079 5.48999C9.18413 5.16333 8.79163 4.99999 8.33329 4.99999C7.87496 4.99999 7.48274 5.16333 7.15663 5.48999C6.82996 5.81611 6.66663 6.20833 6.66663 6.66666C6.66663 7.12499 6.82996 7.51722 7.15663 7.84333C7.48274 8.16999 7.87496 8.33333 8.33329 8.33333Z" fill="white"/>
</svg>
