<svg width="20" height="20" viewBox="0 0 20 20" fill="none" xmlns="http://www.w3.org/2000/svg">
<path d="M10 15C9.22222 15 8.47917 15.1217 7.77083 15.365C7.0625 15.6078 6.41667 15.9722 5.83333 16.4583V16.6667H14.1667V16.4583C13.5833 15.9722 12.9375 15.6078 12.2292 15.365C11.5208 15.1217 10.7778 15 10 15ZM4.16667 15.7083C4.91667 14.9722 5.78833 14.3922 6.78167 13.9683C7.77444 13.545 8.84722 13.3333 10 13.3333C11.1528 13.3333 12.2258 13.545 13.2192 13.9683C14.2119 14.3922 15.0833 14.9722 15.8333 15.7083V4.99999H4.16667V15.7083ZM10 11.6667C9.19444 11.6667 8.50694 11.3819 7.9375 10.8125C7.36806 10.243 7.08333 9.55555 7.08333 8.74999C7.08333 7.94443 7.36806 7.25693 7.9375 6.68749C8.50694 6.11804 9.19444 5.83332 10 5.83332C10.8056 5.83332 11.4931 6.11804 12.0625 6.68749C12.6319 7.25693 12.9167 7.94443 12.9167 8.74999C12.9167 9.55555 12.6319 10.243 12.0625 10.8125C11.4931 11.3819 10.8056 11.6667 10 11.6667ZM10 9.99999C10.3472 9.99999 10.6422 9.87832 10.885 9.63499C11.1283 9.39221 11.25 9.09721 11.25 8.74999C11.25 8.40277 11.1283 8.10777 10.885 7.86499C10.6422 7.62166 10.3472 7.49999 10 7.49999C9.65278 7.49999 9.35778 7.62166 9.115 7.86499C8.87167 8.10777 8.75 8.40277 8.75 8.74999C8.75 9.09721 8.87167 9.39221 9.115 9.63499C9.35778 9.87832 9.65278 9.99999 10 9.99999ZM4.16667 18.3333C3.70833 18.3333 3.31583 18.1703 2.98917 17.8442C2.66306 17.5175 2.5 17.125 2.5 16.6667V4.99999C2.5 4.54166 2.66306 4.14943 2.98917 3.82332C3.31583 3.49666 3.70833 3.33332 4.16667 3.33332H5V1.66666H6.66667V3.33332H13.3333V1.66666H15V3.33332H15.8333C16.2917 3.33332 16.6842 3.49666 17.0108 3.82332C17.3369 4.14943 17.5 4.54166 17.5 4.99999V16.6667C17.5 17.125 17.3369 17.5175 17.0108 17.8442C16.6842 18.1703 16.2917 18.3333 15.8333 18.3333H4.16667ZM10 16.6667H14.1667H5.83333H10Z" fill="white"/>
</svg>
