<svg width="20" height="20" viewBox="0 0 20 20" fill="none" xmlns="http://www.w3.org/2000/svg">
<g clip-path="url(#clip0_695_637)">
<path d="M7.83325 1H6.16657C5.96657 1 5.83325 1.13332 5.83325 1.33332C5.83325 1.53332 5.96657 1.66664 6.16657 1.66664H7.83325C8.03325 1.66664 8.16657 1.53332 8.16657 1.33332C8.16661 1.13332 8.03325 1 7.83325 1Z" fill="white" stroke="white" stroke-width="0.63"/>
<path d="M5.16652 1H4.8332C4.6332 1 4.49988 1.13332 4.49988 1.33332C4.49988 1.53332 4.6332 1.66664 4.8332 1.66664H5.16652C5.36652 1.66664 5.49984 1.53332 5.49984 1.33332C5.49984 1.13332 5.36652 1 5.16652 1Z" fill="white" stroke="white" stroke-width="0.63"/>
<path d="M18.1666 4.33332H12.1666V2V1.33332C12.1666 0.6 11.5666 0 10.8332 0H2.16656C1.4332 0 0.833198 0.6 0.833198 1.33332V2V3C0.633198 3 0.499878 3.13332 0.499878 3.33332V3.66664C0.499878 3.86664 0.633198 3.99996 0.833198 3.99996V4.33328C0.633198 4.33328 0.499878 4.4666 0.499878 4.6666V5C0.499878 5.2 0.633198 5.33332 0.833198 5.33332V5.66664C0.633198 5.66664 0.499878 5.79996 0.499878 5.99996V6.33328C0.499878 6.53328 0.633198 6.6666 0.833198 6.6666V17.3333V18.6666C0.833198 19.3999 1.4332 19.9999 2.16652 19.9999H10.8332C11.5665 19.9999 12.1665 19.3999 12.1665 18.6666V17.3333V15H18.1665C18.8998 15 19.4998 14.4 19.4998 13.6667V8.33332V6.33332V5.66664C19.4999 4.93332 18.8999 4.33332 18.1666 4.33332ZM18.1666 5C18.5332 5 18.8332 5.3 18.8332 5.66668V6H5.83324V5.66668C5.83324 5.3 6.13324 5 6.49992 5H12.1666H18.1666ZM18.8332 8H5.8332V6.66668H18.8332V8ZM1.49988 1.33332C1.49988 0.966641 1.79988 0.666641 2.16656 0.666641H10.8332C11.1999 0.666641 11.4999 0.966641 11.4999 1.33332V2H1.49992L1.49988 1.33332ZM1.49988 18.6667V17.3334H5.62085C5.34285 17.5782 5.16656 17.9361 5.16656 18.3334C5.16656 18.7306 5.34289 19.0886 5.62085 19.3334H2.16656C1.79988 19.3333 1.49988 19.0333 1.49988 18.6667ZM6.49988 19C6.1332 19 5.8332 18.7 5.8332 18.3333C5.8332 17.9666 6.1332 17.6666 6.49988 17.6666C6.86656 17.6666 7.16656 17.9666 7.16656 18.3333C7.16656 18.7 6.86656 19 6.49988 19ZM11.4999 18.6667C11.4999 19.0334 11.1999 19.3334 10.8332 19.3334H7.3789C7.65691 19.0886 7.8332 18.7306 7.8332 18.3334C7.8332 17.9361 7.65687 17.5782 7.3789 17.3334H11.4999V18.6667ZM11.4999 16.6667H1.49988V2.66668H11.4999V4.33336H6.49988C5.76656 4.33336 5.16656 4.93336 5.16656 5.66668V6.33336V8.33336V13.6667C5.16656 14.4 5.76656 15 6.49988 15H11.4999V16.6667ZM18.1666 14.3333H12.1666H6.49988C6.1332 14.3333 5.8332 14.0333 5.8332 13.6666V8.66664H18.8332V13.6666C18.8332 14.0333 18.5332 14.3333 18.1666 14.3333Z" fill="white" stroke="white" stroke-width="0.63"/>
<path d="M17.8331 10.6667H13.4998C13.2998 10.6667 13.1665 10.8 13.1665 11V13.3333C13.1665 13.5333 13.2998 13.6666 13.4998 13.6666H17.8331C18.0331 13.6666 18.1665 13.5333 18.1665 13.3333V11C18.1665 10.8 18.0331 10.6667 17.8331 10.6667ZM17.4998 13H13.8331V11.3333H17.4998V13Z" fill="white" stroke="white" stroke-width="0.63"/>
<path d="M6.8332 10.3333H8.49988C8.69988 10.3333 8.8332 10.2 8.8332 10C8.8332 9.80001 8.69988 9.66669 8.49988 9.66669H6.8332C6.6332 9.66669 6.49988 9.80001 6.49988 10C6.49988 10.2 6.6332 10.3333 6.8332 10.3333Z" fill="white" stroke="white" stroke-width="0.63"/>
<path d="M11.7999 9.66669H9.63325C9.43325 9.66669 9.29993 9.80001 9.29993 10C9.29993 10.2 9.43325 10.3333 9.63325 10.3333H11.7999C11.9999 10.3333 12.1332 10.2 12.1332 10C12.1332 9.80001 11.9999 9.66669 11.7999 9.66669Z" fill="white" stroke="white" stroke-width="0.63"/>
<path d="M10.1332 11H6.8332C6.6332 11 6.49988 11.1333 6.49988 11.3333C6.49988 11.5333 6.6332 11.6666 6.8332 11.6666H10.1332C10.2999 11.6666 10.4665 11.5333 10.4665 11.3333C10.4665 11.1333 10.3332 11 10.1332 11Z" fill="white" stroke="white" stroke-width="0.63"/>
<path d="M11.7999 11H11.1666C10.9666 11 10.8333 11.1333 10.8333 11.3333C10.8333 11.5333 10.9666 11.6666 11.1666 11.6666H11.7999C11.9999 11.6666 12.1332 11.5333 12.1332 11.3333C12.1332 11.1333 11.9999 11 11.7999 11Z" fill="white" stroke="white" stroke-width="0.63"/>
</g>
<defs>
<clipPath id="clip0_695_637">
<rect width="20" height="20" fill="white"/>
</clipPath>
</defs>
</svg>
