<svg width="22" height="22" viewBox="0 0 22 22" fill="none" xmlns="http://www.w3.org/2000/svg">
<g clip-path="url(#clip0_830_1752)">
<path d="M17.4167 7.33333H16.5V2.75H5.50004V7.33333H4.58337C3.06171 7.33333 1.83337 8.56167 1.83337 10.0833V15.5833H5.50004V19.25H16.5V15.5833H20.1667V10.0833C20.1667 8.56167 18.9384 7.33333 17.4167 7.33333ZM7.33337 4.58333H14.6667V7.33333H7.33337V4.58333ZM14.6667 15.5833V17.4167H7.33337V13.75H14.6667V15.5833ZM16.5 13.75V11.9167H5.50004V13.75H3.66671V10.0833C3.66671 9.57917 4.07921 9.16667 4.58337 9.16667H17.4167C17.9209 9.16667 18.3334 9.57917 18.3334 10.0833V13.75H16.5Z" fill="#A1A1A1"/>
<path d="M16.5 11.4583C17.0063 11.4583 17.4167 11.0479 17.4167 10.5417C17.4167 10.0354 17.0063 9.625 16.5 9.625C15.9938 9.625 15.5834 10.0354 15.5834 10.5417C15.5834 11.0479 15.9938 11.4583 16.5 11.4583Z" fill="#A1A1A1"/>
</g>
<defs>
<clipPath id="clip0_830_1752">
<rect width="22" height="22" fill="white"/>
</clipPath>
</defs>
</svg>
