<svg width="20" height="20" viewBox="0 0 20 20" fill="none" xmlns="http://www.w3.org/2000/svg">
<g clip-path="url(#clip0_695_592)">
<path d="M10 19.1667C8.44449 19.1667 7.01393 18.8125 5.70837 18.1042C4.40282 17.3958 3.33337 16.4514 2.50004 15.2708V17.5H0.833374V12.5H5.83337V14.1667H3.77087C4.43754 15.1667 5.31601 15.9722 6.40629 16.5833C7.49657 17.1945 8.69449 17.5 10 17.5C11.0417 17.5 12.0174 17.3021 12.9271 16.9063C13.8368 16.5104 14.6285 15.9757 15.3021 15.3021C15.9757 14.6285 16.5105 13.8368 16.9063 12.9271C17.3021 12.0174 17.5 11.0417 17.5 10H19.1667C19.1667 11.2639 18.9271 12.4514 18.448 13.5625C17.9688 14.6736 17.3125 15.6458 16.4792 16.4792C15.6459 17.3125 14.6737 17.9688 13.5625 18.4479C12.4514 18.9271 11.2639 19.1667 10 19.1667ZM0.833374 10C0.833374 8.73612 1.07296 7.54862 1.55212 6.43751C2.03129 5.3264 2.68754 4.35418 3.52087 3.52084C4.35421 2.68751 5.32643 2.03126 6.43754 1.55209C7.54865 1.07293 8.73615 0.833344 10 0.833344C11.5556 0.833344 12.9862 1.18751 14.2917 1.89584C15.5973 2.60418 16.6667 3.54862 17.5 4.72918V2.50001H19.1667V7.50001H14.1667V5.83334H16.2292C15.5625 4.83334 14.6841 4.02779 13.5938 3.41668C12.5035 2.80557 11.3056 2.50001 10 2.50001C8.95837 2.50001 7.98268 2.69793 7.07296 3.09376C6.16324 3.48959 5.37157 4.02432 4.69796 4.69793C4.02435 5.37154 3.48962 6.1632 3.09379 7.07293C2.69796 7.98265 2.50004 8.95834 2.50004 10H0.833374ZM10 15C10.2917 15 10.5382 14.8993 10.7396 14.6979C10.941 14.4965 11.0417 14.25 11.0417 13.9583C11.0417 13.6667 10.941 13.4167 10.7396 13.2083C10.5382 13 10.2917 12.8958 10 12.8958C9.70837 12.8958 9.46185 12.9965 9.26046 13.1979C9.05907 13.3993 8.95837 13.6458 8.95837 13.9375C8.95837 14.2292 9.05907 14.4792 9.26046 14.6875C9.46185 14.8958 9.70837 15 10 15ZM9.25004 11.8333H10.7709C10.7709 11.3333 10.8299 10.9583 10.948 10.7083C11.066 10.4583 11.3056 10.1528 11.6667 9.79168C12.1528 9.30557 12.4757 8.91321 12.6355 8.61459C12.7952 8.31598 12.875 7.95834 12.875 7.54168C12.875 6.7639 12.5973 6.14584 12.0417 5.68751C11.4862 5.22918 10.8056 5.00001 10 5.00001C9.3056 5.00001 8.70837 5.18057 8.20837 5.54168C7.70837 5.90279 7.34726 6.41668 7.12504 7.08334L8.50004 7.66668C8.59726 7.30557 8.78129 7.00695 9.05212 6.77084C9.32296 6.53473 9.63893 6.41668 10 6.41668C10.375 6.41668 10.691 6.52432 10.948 6.73959C11.2049 6.95487 11.3334 7.24307 11.3334 7.60418C11.3334 7.84029 11.2778 8.0764 11.1667 8.31251C11.0556 8.54862 10.8195 8.8264 10.4584 9.14584C10 9.54862 9.68407 9.94098 9.51046 10.3229C9.33685 10.7049 9.25004 11.2083 9.25004 11.8333Z" fill="white"/>
</g>
<defs>
<clipPath id="clip0_695_592">
<rect width="20" height="20" fill="white"/>
</clipPath>
</defs>
</svg>
