<svg width="48" height="48" viewBox="0 0 48 48" fill="none" xmlns="http://www.w3.org/2000/svg">
<rect width="48" height="48" rx="24" fill="#1076BB"/>
<path d="M22.2031 31.5446V15.9141C22.2031 15.8152 22.1223 15.7344 22.0234 15.7344H20.6758C20.577 15.7344 20.4961 15.8152 20.4961 15.9141V29.5074L16.3857 26.2663C16.2689 26.1742 16.0938 26.2573 16.0938 26.4078V28.0362C16.0938 28.1463 16.1432 28.2496 16.2308 28.3192L21.0396 32.1106C21.5113 32.4813 22.2031 32.1466 22.2031 31.5446ZM27.5039 32.0859V18.4926L31.6143 21.7337C31.7311 21.8258 31.9062 21.7427 31.9062 21.5922V19.9638C31.9062 19.8537 31.8568 19.7504 31.7692 19.6808L26.9604 15.8894C26.4887 15.5188 25.7969 15.8534 25.7969 16.4531V32.0859C25.7969 32.1848 25.8777 32.2656 25.9766 32.2656H27.3242C27.423 32.2656 27.5039 32.1848 27.5039 32.0859Z" fill="white"/>
</svg>
