<svg width="52" height="81" viewBox="0 0 52 81" fill="none" xmlns="http://www.w3.org/2000/svg">
<rect y="12.1077" width="52" height="52" rx="15" fill="#1076BB"/>
<g clip-path="url(#clip0_695_695)">
<path d="M8 36.1077C8 27.2712 15.1634 20.1077 24 20.1077H28C36.8366 20.1077 44 27.2712 44 36.1077V40.1077C44 48.9443 36.8366 56.1077 28 56.1077H24C15.1634 56.1077 8 48.9443 8 40.1077V36.1077Z" fill="#1076BB"/>
<path d="M31.115 44.9928L24.245 38.1077L31.115 31.2227L29 29.1077L20 38.1077L29 47.1077L31.115 44.9928Z" fill="white"/>
</g>
<path d="M43 13.6077C43 13.6077 24.0001 6.10751 23.0001 1.10751C22.0001 -3.89249 23.0001 14.6075 23.0001 14.6075L43 13.6077Z" fill="#1076BB" stroke="#1076BB" stroke-width="0.5"/>
<path d="M44 62.1077C44 62.1077 24.9642 74.2322 24.0006 79.1077C23.037 83.9833 24.0004 63.1077 24.0004 63.1077L44 62.1077Z" fill="#1076BB" stroke="#1076BB" stroke-width="0.5"/>
<defs>
<clipPath id="clip0_695_695">
<path d="M8 36.1077C8 27.2712 15.1634 20.1077 24 20.1077H28C36.8366 20.1077 44 27.2712 44 36.1077V40.1077C44 48.9443 36.8366 56.1077 28 56.1077H24C15.1634 56.1077 8 48.9443 8 40.1077V36.1077Z" fill="white"/>
</clipPath>
</defs>
</svg>
