<svg width="40" height="40" viewBox="0 0 40 40" fill="none" xmlns="http://www.w3.org/2000/svg">
<path d="M0 20C0 8.95431 8.95431 0 20 0C31.0457 0 40 8.95431 40 20C40 31.0457 31.0457 40 20 40C8.95431 40 0 31.0457 0 20Z" fill="#E8E8E8"/>
<g clip-path="url(#clip0_1029_3028)">
<path d="M29 15.28V13C29 11.9 28.1 11 27 11H13C11.89 11 11 11.9 11 13V27C11 28.1 11.89 29 13 29H27C28.1 29 29 28.1 29 27V24.72C29.59 24.37 30 23.74 30 23V17C30 16.26 29.59 15.63 29 15.28ZM28 17V23H21V17H28ZM13 27V13H27V15H21C19.9 15 19 15.9 19 17V23C19 24.1 19.9 25 21 25H27V27H13Z" fill="#373737"/>
<path d="M24 21.5C24.8284 21.5 25.5 20.8284 25.5 20C25.5 19.1716 24.8284 18.5 24 18.5C23.1716 18.5 22.5 19.1716 22.5 20C22.5 20.8284 23.1716 21.5 24 21.5Z" fill="#373737"/>
</g>
<defs>
<clipPath id="clip0_1029_3028">
<rect width="24" height="24" fill="white" transform="translate(8 8)"/>
</clipPath>
</defs>
</svg>
